<svg width="351" height="351" viewBox="0 0 351 351" fill="none" xmlns="http://www.w3.org/2000/svg">
<rect width="351" height="351" fill="#B9FF78"/>
<path d="M244.203 204.847C241.045 171.434 206.031 163.951 161.56 157.093C155.501 156.158 151.076 150.876 151.186 144.751C151.296 138.259 156.437 132.996 162.937 132.721C192.535 131.492 250.446 132.39 251.034 99.289C251.438 77.2275 221.05 52.6536 172.411 51.7733C119.733 50.838 64.0991 83.7378 61.1246 149.959C58.3153 212.586 103.245 260.835 173.311 262.101C226.099 263.054 246.388 227.807 244.203 204.829V204.847Z" stroke="#00551F" stroke-width="12" stroke-linejoin="round"/>
<path d="M105.815 147.3C108.973 180.713 143.988 188.195 188.458 195.054C194.517 195.989 198.942 201.271 198.832 207.396C198.722 213.888 193.581 219.151 187.081 219.426C157.483 220.655 99.572 219.756 98.9844 252.858C98.5805 274.919 128.968 299.493 177.607 300.374C230.267 301.327 285.901 268.427 288.875 202.206C291.684 139.579 246.755 91.33 176.689 90.0646C123.9 89.111 103.611 124.358 105.796 147.337L105.815 147.3Z" stroke="#00551F" stroke-width="12" stroke-linejoin="round"/>
</svg>
